<?xml version="1.0" encoding="utf-8"?>
<svg xmlns="http://www.w3.org/2000/svg" viewBox="0 0 24 24" width="24px" height="24px" xmlns:bx="https://boxy-svg.com">
  <path d="M 5 1.5 C 5.003 1.501 6.505 1.5 8.088 1.5 L 8.088 9.186 C 9.304 7.751 10.762 7.215 12.605 7.215 C 15.292 7.215 16.71 8.47 17.614 9.772 C 18.827 11.52 19.123 13.96 18.958 16.036 C 18.935 16.341 18.895 16.758 18.706 17.576 C 18.695 17.633 18.476 18.369 18.397 18.581 C 18.003 19.634 17.411 20.579 16.561 21.319 C 15.392 22.337 14.148 22.643 12.434 22.643 C 11.29 22.643 9.575 22.072 8.088 20.672 L 8.085 22.643 L 5 22.643 L 5 1.5 Z M 14.238 19.584 C 15.334 18.874 16.15 17.786 16.093 14.811 C 16.076 13.864 15.936 12.769 15.533 11.906 C 15.224 11.243 14.648 10.581 13.99 10.251 C 12.849 9.689 11.612 9.85 11.004 10.003 C 9.275 10.42 8.234 12.344 8.088 13.615 C 7.824 15.902 7.976 19.193 10.644 19.974 C 11.561 20.242 13.234 20.186 14.238 19.584 Z" style="fill-rule: nonzero; fill: rgb(15, 146, 247); vector-effect: non-scaling-stroke; stroke-width: 6px; stroke-miterlimit: 1; stroke-linecap: square; stroke-dashoffset: 100px; paint-order: fill;" id="object-0"/>
  <defs>
    <bx:grid x="0" y="0" width="5" height="5" divisions="10" opacity="0.4"/>
    <bx:export>
      <bx:file format="svg" normalization="web-static"/>
    </bx:export>
  </defs>
</svg>